# xmcd
#
# Track frame offsets:
#	150
#	12970
#	29130
#	43300
#	56357
#	76010
#	89970
#	111132
#	126905
#	141585
#	156227
#	168400
#	182587
#	195997
#	213452
#	233270
#	250815
#	266887
#	284217
#	302645
#	324160
#
# Disc length: 4553 seconds
#
# Revision: 1
# Processed by: cddbd v1.5.1PL0 Copyright (c) Steve Scherf et al.
# Submitted via: CDex 1.50Beta5
#
DISCID=3211c715
DTITLE=サウンドトラック - 特撮英雄伝 Disc 4
DYEAR=1900
DGENRE=Soundtrack
TTITLE0=アンドロメロス
TTITLE1=帰って来いよアンドロメロス
TTITLE2=星雲仮面マシンマン
TTITLE3=電光アクションマシンマン
TTITLE4=大いなる人マシンマン
TTITLE5=ボールボーイの歌
TTITLE6=OH!チャイルド
TTITLE7=ぼくらのマシンマン
TTITLE8=おれの名はマシンマン
TTITLE9=たたかえ!バイクロッサー
TTITLE10=おれとおまえはバイクロッサー
TTITLE11=ゴーゴー!ケンローダー
TTITLE12=その名も兄弟拳バイクロッサー
TTITLE13=ギャラクティカ・スリング
TTITLE14=大切な言葉
TTITLE15=夢のヒーロー
TTITLE16=もっと君を知れば
TTITLE17=OVER THE TIMES〜時を越えて
TTITLE18=微笑みの出発
TTITLE19=シャンゼリオン〜光りの未来
TTITLE20=OVER THE TIMES〜時を超えて(イングリッシュ・ヴァージョン)
EXTD=
EXTT0=
EXTT1=
EXTT2=
EXTT3=
EXTT4=
EXTT5=
EXTT6=
EXTT7=
EXTT8=
EXTT9=
EXTT10=
EXTT11=
EXTT12=
EXTT13=
EXTT14=
EXTT15=
EXTT16=
EXTT17=
EXTT18=
EXTT19=
EXTT20=
PLAYORDER=
